<svg xmlns="http://www.w3.org/2000/svg" viewBox="0 0 355.86 500"><defs><style>.cls-1{fill:#717272;}</style></defs><title>K&amp;amp;D_logo_1.0</title><g id="Layer_14" data-name="Layer 14"><path class="cls-1" d="M129.77,128.66h20.75L73.07,230.92V128.12H88V119.6H30.46v8.53H44.57V326.75H30.46v8.53H88v-8.53H73.07V245.19l18.18-24.08,57.32,105.64H124.45v8.53H182v-8.53h-23.7L97,213.71l64.31-85.05H182v-8.53H129.77ZM64.54,326.75H53.1V128.12H64.54Z"/><path class="cls-1" d="M328.73,227.43c0-106.61-60.48-107.84-63.06-107.84H188.6v8.53h14.61V326.48H188.6V335h57.85v.27h19.22C268.24,335.27,328.73,334,328.73,227.43Zm-104.35,99H212.73V128.12h11.64Zm9.23,0V128.12h32.06c.54,0,53.84,1.72,53.84,99.31,0,97.23-53.3,99.3-53.83,99.31H249.11v-.27Z"/><path class="cls-1" d="M184.44,228.76a44.71,44.71,0,0,0,1.68-6.46,37.83,37.83,0,0,0,.61-6.81v-1.16a2.37,2.37,0,0,0-.23-1.16,1.31,1.31,0,0,0-.67-.58,3.43,3.43,0,0,0-1.1-.2q-.67,0-1.53,0a13.78,13.78,0,0,0-1.71.09,2.43,2.43,0,0,0-1,.32,1.29,1.29,0,0,0-.49.58,2.27,2.27,0,0,0-.14.87v2.26a33.35,33.35,0,0,1-.44,5.39,35.44,35.44,0,0,1-1.25,5.19,36.43,36.43,0,0,1-1.91,4.78,23.29,23.29,0,0,1-2.49,4.05q-2.9-2.61-5.79-5.47t-5.68-5.79q-2.78-2.93-5.33-5.82t-4.69-5.56a109.68,109.68,0,0,0,9.59-5.85,38,38,0,0,0,6.34-5.39,17.4,17.4,0,0,0,3.5-5.47,17.2,17.2,0,0,0,1.07-6.17,15.44,15.44,0,0,0-1.16-6.05,12.77,12.77,0,0,0-3.42-4.72,16,16,0,0,0-5.65-3.07,25.67,25.67,0,0,0-7.91-1.1,27.77,27.77,0,0,0-9.65,1.48,17.83,17.83,0,0,0-6.43,3.91,14.5,14.5,0,0,0-3.56,5.56,19.43,19.43,0,0,0-1.1,6.49,18.33,18.33,0,0,0,.46,4.11,20.86,20.86,0,0,0,1.53,4.29,44.93,44.93,0,0,0,2.78,4.92q1.71,2.66,4.14,6a58.07,58.07,0,0,0-7.53,5.36,27.37,27.37,0,0,0-4.92,5.39,19.53,19.53,0,0,0-2.67,5.65,22.22,22.22,0,0,0-.81,6,21.51,21.51,0,0,0,.72,5.68,18.34,18.34,0,0,0,2.08,4.87,17.66,17.66,0,0,0,3.36,4,19.25,19.25,0,0,0,4.58,3,25,25,0,0,0,5.68,1.85,33.21,33.21,0,0,0,6.69.64,34,34,0,0,0,7.21-.72,32.85,32.85,0,0,0,6.29-2,34.17,34.17,0,0,0,5.53-3.07,47.3,47.3,0,0,0,4.9-3.85q3.36,2.9,5.88,4.75a51.23,51.23,0,0,0,4.4,3,16.34,16.34,0,0,0,3.27,1.53,8.43,8.43,0,0,0,2.49.44,11.39,11.39,0,0,0,2.29-.17,2.85,2.85,0,0,0,1.07-.41,1.25,1.25,0,0,0,.41-.58,4.07,4.07,0,0,0,.15-1c0-.46,0-1.06,0-1.8a5.27,5.27,0,0,0-.17-1.59,1,1,0,0,0-.49-.64,1.53,1.53,0,0,0-.81-.09,9.07,9.07,0,0,1-1.07.06,4.47,4.47,0,0,1-1.62-.41,17.76,17.76,0,0,1-2.55-1.39q-1.56-1-3.74-2.58t-5.13-4a38.75,38.75,0,0,0,3.48-5.27A37.65,37.65,0,0,0,184.44,228.76Zm-42.78-33.14a14.05,14.05,0,0,1-.46-3.53,11.88,11.88,0,0,1,.67-3.94,9,9,0,0,1,2.17-3.42,10.84,10.84,0,0,1,3.85-2.4,18.81,18.81,0,0,1,11.21-.09,10.78,10.78,0,0,1,3.71,2.14,8.15,8.15,0,0,1,2.12,3,9.75,9.75,0,0,1,.67,3.56,11.27,11.27,0,0,1-.87,4.43,14.47,14.47,0,0,1-2.81,4.14,31.36,31.36,0,0,1-5.13,4.29q-3.19,2.2-7.88,4.87-2-2.78-3.42-5.07a43.61,43.61,0,0,1-2.4-4.26A20.2,20.2,0,0,1,141.66,195.62Zm23.93,48.26a26.29,26.29,0,0,1-4.35,2.4,27.25,27.25,0,0,1-4.84,1.59,23.64,23.64,0,0,1-5.3.58,22,22,0,0,1-7.27-1.1,14.48,14.48,0,0,1-5.27-3.1,12.93,12.93,0,0,1-3.19-4.72,16.3,16.3,0,0,1-1.07-6,16.13,16.13,0,0,1,.58-4.35,15,15,0,0,1,1.94-4.17,21.9,21.9,0,0,1,3.62-4.14,40.48,40.48,0,0,1,5.68-4.2q2.32,3,5,6t5.68,6.17q3,3.1,6.11,6.14t6.4,5.88A32,32,0,0,1,165.58,243.88Z"/><path class="cls-1" d="M102.76,53.12a30.44,30.44,0,0,1,29.76-9.54c3.76-.76,7.36-1.34,10.63-1.68.91-.1,1.81-.19,2.66-.24l.72-.07c2.1-.12,5.55-.27,8.54-.38l2.66-.1L159.4,41V30.43l-3.05.1h0c-3.58.14-8.09.34-9.84.43l-.56,0c-.71,0-1.51.14-2.25.2-13,1.13-31.71,5.92-42.92,11.15L74.19,54.74a80,80,0,0,1-9.93,3.7H91.35Z"/><path class="cls-1" d="M150.35,60.15A28.22,28.22,0,0,0,136.6,47.66a27.9,27.9,0,0,0-4-1.32c-.41-.11-.82-.23-1.24-.32-.7-.14-1.43-.24-2.15-.33-.21,0-.42-.08-.63-.1a28.27,28.27,0,0,0-2.86-.15c-.54,0-1.07.05-1.6.08a28.16,28.16,0,0,0-9,2,27.06,27.06,0,0,0-2.73,1.29c-.4.22-.78.47-1.17.71a28.2,28.2,0,0,0-4.28,3.2c-.34.31-.7.6-1,.93-.56.56-1.09,1.15-1.6,1.76a28.25,28.25,0,0,0-2.2,3h12.41a18.66,18.66,0,0,1,21.76-.56,19,19,0,0,1,5.1,5.1,18.85,18.85,0,0,1-26.17,26.17,18,18,0,0,1-5.36-5.58H99.52a28.67,28.67,0,0,0,1.2,2.7,27.92,27.92,0,0,0,5.13,7.08,28.23,28.23,0,0,0,6.47,4.84,28,28,0,0,0,4.08,1.78q1.09.38,2.22.68a27.88,27.88,0,0,0,4.33.78,27.07,27.07,0,0,0,2.73.15,28.27,28.27,0,0,0,2.86-.15,29.19,29.19,0,0,0,12.81-4.65,28.26,28.26,0,0,0,9-9.9,28,28,0,0,0,0-26.73Z"/><path class="cls-1" d="M98.62,80.8h8.5V76.37h0v-5.7h0V61.2H56.86V80.8H98.62ZM73,73.06a2.05,2.05,0,0,1,0-4.11,2,2,0,0,1,1,.28A2,2,0,0,1,75.07,71,2.06,2.06,0,0,1,73,73.06Zm17.6,0A2.05,2.05,0,1,1,92.66,71,2.06,2.06,0,0,1,90.61,73.06Z"/><path class="cls-1" d="M257.24,419.36h-8.5v4.44h0v5.7h0V439H299v-19.6H257.24Zm25.61,7.75a2.05,2.05,0,0,1,0,4.11,2,2,0,0,1-1-.28,2,2,0,0,1-1.08-1.77A2.06,2.06,0,0,1,282.85,427.1Zm-17.6,0a2.05,2.05,0,1,1-2.05,2.05A2.06,2.06,0,0,1,265.25,427.1Z"/><path class="cls-1" d="M312.72,61.19H277.18a9.14,9.14,0,0,1-5.68-2.54L256.76,41.87a12.32,12.32,0,0,0-9.2-4.32H243l4.11,4.86a6.19,6.19,0,0,1,5.24,2.44l15.22,17.37a14.34,14.34,0,0,0,9.66,4.31h35.54v1.8H269.49a8.79,8.79,0,0,1-5.58-2.56L236.31,33.7a14,14,0,0,0-9.62-4.42H200.25a27.9,27.9,0,0,0-2-4.59q-.65-1.19-1.41-2.31a28,28,0,0,0-49.49,5.8c2.57-.12,7.28-.33,10.48-.44a18.62,18.62,0,0,1,1.27-1.62,19.09,19.09,0,1,1,0,23.87,18.72,18.72,0,0,1-3.36-6.08c-3.1.12-6.85.28-9.09.41l-.39,0q.16.68.35,1.35A27.85,27.85,0,0,0,149,51.42a28.17,28.17,0,0,0,3,4.47q.86,1,1.81,2A28.57,28.57,0,0,0,164.6,64.6a27.88,27.88,0,0,0,19.93-.69,27.49,27.49,0,0,0,5.28-3,28.78,28.78,0,0,0,4.5-4,28.34,28.34,0,0,0,1.87-2.28,27.78,27.78,0,0,0,5.11-12.22h32.52l-4.63-4.89H201.65a28,28,0,0,0-.21-2.93h25.24a8.79,8.79,0,0,1,5.58,2.56l27.61,32.08a14,14,0,0,0,9.62,4.42h43.22v1.76h-63.2c0-.64.1-1.27.1-1.92a27.9,27.9,0,0,0-3.39-13.36,28.25,28.25,0,0,0-6.83-8.28,28,28,0,0,0-31.2-3,28.08,28.08,0,0,0-14.12,30.32,27.82,27.82,0,0,0,1.13,4A27.73,27.73,0,0,0,212.27,100q1.09.38,2.22.68a27.88,27.88,0,0,0,4.33.78,27.07,27.07,0,0,0,2.73.15,27.93,27.93,0,0,0,17.84-6.42,28.25,28.25,0,0,0,6.83-8.28,26.23,26.23,0,0,0,1.38-3,29.73,29.73,0,0,0,1-3.14h64.09a28.05,28.05,0,0,1,28,28V391.19a28,28,0,0,1-27.71,28h-1.69v19.54h2.61c.59,0,1.19,0,1.77-.09s1.25-.13,1.87-.22a35.72,35.72,0,0,0,4.37-.88q1.66-.44,3.24-1c.64-.24,1.29-.47,1.91-.75a36.07,36.07,0,0,0,21.63-33V97.22A36.07,36.07,0,0,0,312.72,61.19ZM237.18,84A18.82,18.82,0,1,1,207.55,61a19.08,19.08,0,0,1,8-5.36,18.42,18.42,0,0,1,6-1,18.75,18.75,0,0,1,10.54,3.23,19,19,0,0,1,5.1,5.1,18.82,18.82,0,0,1,0,21.07Z"/><polygon class="cls-1" points="54.86 80.8 54.86 74.6 54.86 73.21 54.86 71.82 54.86 61.2 54.86 60.95 54.86 59.82 54.86 59.69 54.25 59.69 47.23 59.69 46.52 59.69 46.52 59.8 46.52 59.82 46.52 61.18 46.52 61.2 46.52 62.56 46.52 73.31 46.52 74.69 46.52 76.07 46.52 80.8 46.52 81.99 54.86 81.99 54.86 80.8"/><path class="cls-1" d="M253.1,446.88a30.44,30.44,0,0,1-29.76,9.54c-3.76.76-7.36,1.34-10.63,1.68-.91.1-1.81.19-2.66.24l-.72.07c-2.1.12-5.55.27-8.54.38l-2.66.1-1.66.06v10.61l3.05-.1h0c3.58-.14,8.09-.34,9.84-.43l.56,0c.71,0,1.51-.14,2.25-.2,13-1.13,31.71-5.92,42.92-11.15l26.58-12.4a80,80,0,0,1,9.93-3.7H264.52Z"/><path class="cls-1" d="M214.5,449.75a26.66,26.66,0,0,0,8.79,3.91c.41.11.82.23,1.24.32.7.14,1.43.24,2.15.33.21,0,.42.08.63.1a28.27,28.27,0,0,0,2.86.15c.54,0,1.07-.05,1.6-.08a28.16,28.16,0,0,0,9-2,27.06,27.06,0,0,0,2.73-1.29c.4-.22.78-.47,1.17-.71a28.2,28.2,0,0,0,4.28-3.2c.34-.31.7-.6,1-.93.56-.56,1.09-1.15,1.6-1.76a28.25,28.25,0,0,0,2.2-3H241.4a18.66,18.66,0,0,1-21.76.56,19.05,19.05,0,0,1-2.79-2.3c-.34-.34-.6-.74-.91-1.11a41.53,41.53,0,0,1-6.19,6.92c.21.22.38.48.6.69A28.32,28.32,0,0,0,214.5,449.75Z"/><path class="cls-1" d="M255.14,413.74a27.92,27.92,0,0,0-5.13-7.08,28.23,28.23,0,0,0-6.47-4.84,28,28,0,0,0-4.08-1.78q-1.09-.38-2.22-.68a27.88,27.88,0,0,0-4.33-.78,27.07,27.07,0,0,0-2.73-.15,28.27,28.27,0,0,0-2.86.15,26.09,26.09,0,0,0-6.16,1.37c-.14,0-.27.12-.41.17-.69.25-1.36.55-2,.85-.36.16-.75.29-1.1.46a28.07,28.07,0,0,0-3.11,1.79c-.27.19-.53.4-.79.59-.63.46-1.23.93-1.82,1.43s-1.05.91-1.54,1.4a28.26,28.26,0,0,0-4.84,6.47,28.06,28.06,0,0,0-2.13,21.7c.24.76.52,1.5.82,2.23a31.21,31.21,0,0,0,7.15-11A19,19,0,0,1,214.54,416c.33-.49.71-1,1.09-1.42a18.82,18.82,0,0,1,7.44-5.5,18.78,18.78,0,0,1,17.64,1.82,18,18,0,0,1,5.36,5.58h10.27A28.67,28.67,0,0,0,255.14,413.74Z"/><path class="cls-1" d="M196.73,473.87a18.8,18.8,0,0,1-33.34-11.93,18.67,18.67,0,0,1,2.46-9.21,41.21,41.21,0,0,1-8-4.63c-.1.16-.22.31-.31.48a28.88,28.88,0,0,0-3,9H122l4.63,4.89h27.54a28,28,0,0,0,.21,2.93H129.18a8.79,8.79,0,0,1-5.58-2.56L96,430.74a14,14,0,0,0-9.62-4.42H43.15v-1.76h63.2c0,.64-.1,1.27-.1,1.92a27.9,27.9,0,0,0,3.39,13.36,28.25,28.25,0,0,0,6.83,8.28,28,28,0,0,0,31.2,3,28.23,28.23,0,0,0,6.47-4.84c.23-.23.42-.5.64-.74.5-.54,1-1.09,1.44-1.66a28,28,0,0,0,3.11-4.85q.52-1,1-2.11a27.64,27.64,0,0,0,1.51-4.82,28.22,28.22,0,0,0,0-11.3,27.82,27.82,0,0,0-1.13-4,28.15,28.15,0,0,0-6.52-10.19c-.47-.46-1-.86-1.49-1.29a30.29,30.29,0,0,0-1.28,13.21,18.67,18.67,0,0,1,1.71,7.09c0,.28.08.54.08.82a18.21,18.21,0,0,1-.43,3.84A18.65,18.65,0,0,1,150,436.8a19.46,19.46,0,0,1-1.38,1.83c-.1.12-.17.25-.28.37a19.08,19.08,0,0,1-8,5.36,18.42,18.42,0,0,1-6,1,18.75,18.75,0,0,1-10.54-3.23,19,19,0,0,1-5.1-5.1,18.83,18.83,0,0,1,22.83-28,40.77,40.77,0,0,1,2.32-8.93l-.24-.1q-1.09-.38-2.22-.68a27.88,27.88,0,0,0-4.33-.78,27.07,27.07,0,0,0-2.73-.15,27.93,27.93,0,0,0-17.84,6.42,28.25,28.25,0,0,0-6.83,8.28,26.23,26.23,0,0,0-1.38,3,29.73,29.73,0,0,0-1,3.14H43.15a28.05,28.05,0,0,1-28-28V108.81a28,28,0,0,1,27.71-28h1.69V61.26H41.92c-.59,0-1.19,0-1.77.09s-1.25.13-1.87.22a35.72,35.72,0,0,0-4.37.88q-1.66.44-3.24,1c-.64.24-1.29.47-1.91.75a36.07,36.07,0,0,0-21.63,33V402.78a36.07,36.07,0,0,0,36,36H78.68a9.14,9.14,0,0,1,5.68,2.54L99.1,458.13a12.32,12.32,0,0,0,9.2,4.32h4.6l-4.11-4.86a6.19,6.19,0,0,1-5.24-2.44L88.34,437.78a14.34,14.34,0,0,0-9.66-4.31H43.15v-1.8H86.37a8.79,8.79,0,0,1,5.58,2.56l27.61,32.08a14,14,0,0,0,9.62,4.42h26.44a27.9,27.9,0,0,0,2,4.59q.65,1.19,1.41,2.31a28,28,0,0,0,49.49-5.8c-2.57.12-7.28.33-10.48.44A18.62,18.62,0,0,1,196.73,473.87Z"/><path class="cls-1" d="M197.36,450.94a16.13,16.13,0,0,1,2.72,5.15c3.1-.12,6.85-.28,9.09-.41l.39,0q-.16-.68-.35-1.35a27.85,27.85,0,0,0-2.31-5.72c-.08-.15-.18-.29-.26-.44-.36-.64-.74-1.28-1.15-1.89s-1-1.46-1.61-2.15-1.18-1.36-1.81-2c-.08-.08-.17-.13-.24-.21-.54-.53-1.14-1-1.72-1.46a28.53,28.53,0,0,0-5.36-3.58,27.9,27.9,0,0,0-23.42-.77,27.49,27.49,0,0,0-5.28,3c-.58.41-1.11.87-1.66,1.32a31,31,0,0,0,9.68,4.56,18.83,18.83,0,0,1,18.7,1.36c.08.05.14.12.22.18a19.25,19.25,0,0,1,3.72,3.52C197,450.3,197.14,450.64,197.36,450.94Z"/><polygon class="cls-1" points="301 419.2 301 425.4 301 426.79 301 428.18 301 438.8 301 439.06 301 440.18 301 440.31 301.61 440.31 308.63 440.31 309.34 440.31 309.34 440.2 309.34 440.18 309.34 438.82 309.34 438.8 309.34 437.44 309.34 426.69 309.34 425.31 309.34 423.93 309.34 419.2 309.34 418.01 301 418.01 301 419.2"/><path class="cls-1" d="M191.55,448.13c-.46-.31-.94-.56-1.42-.82a32.19,32.19,0,0,1-15.73,0c-1-.24-1.94-.51-2.88-.84a33.24,33.24,0,0,1-8.79-4.57c-.4.39-.81.76-1.18,1.17a28.34,28.34,0,0,0-1.87,2.28c-.22.29-.39.62-.59.91a39,39,0,0,0,8,4.62c.71.3,1.45.54,2.18.81a38.32,38.32,0,0,0,26,0c-.08-.1-.13-.21-.21-.31A16.7,16.7,0,0,0,191.55,448.13Z"/><path class="cls-1" d="M215.82,434.83a38.75,38.75,0,0,0,5.52-19.91c0-.82-.07-1.63-.12-2.44a15.64,15.64,0,0,0-5.82,6.4,34.48,34.48,0,0,1-3.6,11.56,33.51,33.51,0,0,1-6.62,8.68c-.5.48-1,1-1.54,1.4h0c.69.69,1.34,1.41,2,2.15s1.14,1.46,1.66,2.22c.36-.3.7-.64,1.05-1a39.33,39.33,0,0,0,6.2-7C215,436.27,215.39,435.55,215.82,434.83Z"/><path class="cls-1" d="M150.86,403.86c.25-.71.5-1.42.79-2.1a33.57,33.57,0,0,1,16.19-16.89l-4.49-4.07a39.36,39.36,0,0,0-16.64,18.1c-.31.69-.6,1.4-.87,2.12a38.64,38.64,0,0,0-2.28,9.13c-.1.79-.15,1.58-.2,2.38s-.12,1.58-.12,2.38a38.75,38.75,0,0,0,5.44,19.79,16.34,16.34,0,0,0,2.28-8.22c0-.1,0-.19,0-.29a33,33,0,0,1-1.69-6.93,33.4,33.4,0,0,1-.32-4.34c0-.06,0-.12,0-.19A33.12,33.12,0,0,1,150.86,403.86Z"/><path class="cls-1" d="M212.89,401.68l.37-.28a29.78,29.78,0,0,1,3.35-1.93c.41-.21.84-.34,1.26-.53a39.34,39.34,0,0,0-16.64-18.13l-4.49,4.07A33.58,33.58,0,0,1,212.89,401.68Z"/><path class="cls-1" d="M196,363.79H167.91l-8.69,11.5L182.3,396.5l23.07-21.21-8.69-11.5Zm-2,2.67-2.6,6.39-6.16-6.39Zm-11.74.76,6.46,6.7H175.84Zm-3-.76-6.16,6.39-2.6-6.39Zm-11.08,1.38,2.47,6.08h-6.94Zm-3.67,8.75h7.3L178,388.92Zm10.29,0h14.89l-7.45,14.89Zm11.7,12.34,6.17-12.34H200Zm7.33-15,2.47-6.08,4.47,6.08Z"/></g></svg>